<?xml version="1.0" encoding="iso-8859-1"?>
<!-- Generator: Adobe Illustrator 19.0.0, SVG Export Plug-In . SVG Version: 6.00 Build 0)  -->
<svg xmlns="http://www.w3.org/2000/svg" xmlns:xlink="http://www.w3.org/1999/xlink" version="1.1" id="Capa_1" x="0px" y="0px" viewBox="0 0 512.001 512.001" style="enable-background:new 0 0 512.001 512.001;" xml:space="preserve" width="512px" height="512px">
<g>
	<g>
		<g>
			<path d="M372.623,204.084c0.197-0.335,0.405-0.665,0.6-1.002c5.862-10.154,10.385-21.002,13.441-32.24     c1.191-4.381-0.718-9.014-4.649-11.284l-20.501-11.838c0.475-4.094,0.714-8.222,0.714-12.339c0-4.116-0.239-8.244-0.714-12.339     l20.501-11.836c3.932-2.27,5.841-6.903,4.649-11.284c-3.055-11.237-7.576-22.085-13.44-32.238     c-5.86-10.156-12.995-19.498-21.203-27.764c-3.199-3.221-8.165-3.883-12.096-1.614l-20.502,11.836     c-6.633-4.952-13.784-9.086-21.373-12.357V14.131c0-4.54-3.059-8.51-7.447-9.669c-22.529-5.948-46.746-5.948-69.281,0     c-4.39,1.159-7.448,5.129-7.448,9.669v23.655c-7.586,3.27-14.737,7.404-21.372,12.357l-20.504-11.835     c-3.934-2.27-8.898-1.607-12.098,1.615c-8.206,8.266-15.34,17.606-21.201,27.76c-5.86,10.149-10.382,20.997-13.439,32.242     c-1.191,4.38,0.718,9.014,4.649,11.284l20.501,11.834c-0.476,4.097-0.716,8.225-0.716,12.34c0,4.113,0.24,8.241,0.716,12.339     l-20.503,11.837c-3.933,2.27-5.841,6.905-4.649,11.286c3.06,11.247,7.583,22.095,13.441,32.238     c0.195,0.338,0.402,0.667,0.601,1.003c-13.641,16.592-23.882,36.118-30.468,58.169c-8.834,29.564,0.226,76.793,6.22,108.046     c0.486,2.537,0.941,4.91,1.354,7.113c0.003,0.013,0.005,0.026,0.007,0.039c0.52,2.766,0.973,5.257,1.324,7.396     c11.163,67.808,20.916,76.713,53.02,97.137c4.432,2.819,9.454,6.015,14.952,9.744c0.2,0.136,0.405,0.264,0.615,0.385     c22.847,13.188,46.264,19.878,69.604,19.884c0.01,0,0.019,0,0.028,0c23.353-0.001,46.784-6.692,69.645-19.89     c0.209-0.121,0.413-0.249,0.613-0.385c5.495-3.727,10.517-6.921,14.948-9.739c32.105-20.421,41.859-29.325,53.023-97.136     c0.634-3.851,1.585-8.809,2.685-14.55c5.994-31.251,15.054-78.48,6.22-108.044C396.504,240.203,386.263,220.677,372.623,204.084z      M166.308,161.638c3.667-2.117,5.603-6.314,4.834-10.477c-0.959-5.191-1.445-10.499-1.445-15.779     c0-5.28,0.486-10.589,1.445-15.781c0.769-4.164-1.168-8.36-4.834-10.477L146.81,97.868c2.408-6.984,5.494-13.749,9.211-20.187     c3.718-6.44,8.033-12.495,12.877-18.072l19.511,11.265c3.671,2.121,8.281,1.694,11.503-1.063     c8.102-6.933,17.285-12.243,27.295-15.782c3.996-1.413,6.667-5.19,6.667-9.428V22.097c14.509-2.813,29.669-2.813,44.176,0v22.505     c0,4.238,2.672,8.016,6.667,9.428c10.015,3.54,19.198,8.849,27.293,15.78c3.222,2.757,7.83,3.185,11.504,1.064l19.513-11.265     c4.844,5.577,9.157,11.63,12.876,18.073c3.72,6.441,6.805,13.205,9.213,20.186l-19.498,11.257     c-3.667,2.117-5.603,6.313-4.834,10.477c0.958,5.184,1.443,10.492,1.443,15.779c0,5.286-0.485,10.594-1.443,15.779     c-0.769,4.163,1.167,8.359,4.834,10.477l19.497,11.257c-2.408,6.982-5.494,13.747-9.213,20.189     c-3.717,6.44-8.031,12.495-12.875,18.071l-19.513-11.264c-3.671-2.119-8.279-1.694-11.501,1.062     c-8.107,6.936-17.291,12.247-27.294,15.782c-3.995,1.412-6.667,5.19-6.667,9.428v22.505c-14.507,2.813-29.671,2.813-44.178,0     v-22.505c0-4.237-2.671-8.015-6.666-9.428c-10.013-3.541-19.197-8.851-27.296-15.782c-3.223-2.756-7.829-3.182-11.503-1.063     l-19.512,11.264c-4.843-5.577-9.158-11.63-12.877-18.072c-3.716-6.435-6.802-13.2-9.212-20.187L166.308,161.638z M330.43,465.11     c-4.466,2.841-9.517,6.053-15.135,9.855c-39.374,22.612-79.289,22.616-118.663,0.007c-5.617-3.804-10.67-7.018-15.138-9.859     c-26.748-17.017-33.532-21.342-43.383-79.687h14.406c4.656,23.176,25.166,40.688,49.692,40.688s45.036-17.512,49.693-40.688     h8.117c4.657,23.176,25.167,40.688,49.693,40.688c24.527,0,45.037-17.512,49.694-40.688h14.403     C363.962,443.772,357.178,448.096,330.43,465.11z M171.524,375.425c0-16.921,13.767-30.687,30.687-30.687     c16.921,0,30.687,13.766,30.687,30.687c0,16.921-13.767,30.687-30.687,30.687C185.291,406.113,171.524,392.346,171.524,375.425z      M340.403,375.45c-0.014,16.909-13.775,30.661-30.687,30.661c-16.922,0-30.687-13.767-30.687-30.687s13.767-30.687,30.687-30.687     c16.913,0,30.674,13.753,30.687,30.661c0,0.009-0.001,0.017-0.001,0.026C340.402,375.433,340.403,375.442,340.403,375.45z      M377.442,365.425h-18.033c-4.657-23.176-25.167-40.688-49.694-40.688c-24.526,0-45.036,17.512-49.693,40.688h-8.117     c-1.611-8.017-5.125-15.35-10.041-21.52c32.854-15.217,60.264-31.726,81.745-49.246c9.924,12.232,30.331,33.863,58.38,45.73     C380.484,349.498,378.851,358.077,377.442,365.425z M384.952,319.756c-31.243-15.273-51.186-44.804-51.4-45.124     c-1.602-2.422-4.179-4.029-7.06-4.401c-2.884-0.371-5.78,0.526-7.945,2.461c-22.853,20.426-54.535,39.64-94.171,57.157     c-6.7-3.272-14.222-5.113-22.166-5.113c-24.526,0-45.036,17.512-49.692,40.688h-18.036c-5.304-27.668-13.822-72.894-6.485-97.444     c5.233-17.525,13.036-33.195,23.245-46.747c2.733,3.341,5.622,6.549,8.659,9.609c3.198,3.222,8.167,3.885,12.098,1.615     l20.503-11.837c6.635,4.951,13.785,9.085,21.372,12.357v23.656c0,4.54,3.059,8.51,7.447,9.669     c11.265,2.974,22.921,4.482,34.642,4.482c11.722,0,23.377-1.508,34.642-4.482c4.39-1.159,7.447-5.129,7.447-9.669v-23.655     c7.582-3.269,14.732-7.403,21.37-12.357l20.503,11.838c3.932,2.268,8.897,1.607,12.097-1.614c3.038-3.06,5.928-6.269,8.661-9.61     c10.208,13.552,18.011,29.222,23.245,46.747C387.884,281.223,387.228,300.482,384.952,319.756z" fill="#ffdd57"/>
			<path d="M89.051,158.323c5.506-0.426,9.624-5.236,9.197-10.742c-0.313-4.038-0.471-8.142-0.471-12.198     c0-42.254,16.454-81.977,46.331-111.853c3.905-3.905,3.905-10.237,0-14.143c-3.904-3.905-10.234-3.905-14.144,0     C96.31,43.04,77.775,87.786,77.775,135.383c0,4.57,0.179,9.193,0.531,13.743c0.405,5.244,4.786,9.229,9.959,9.229     C88.526,158.354,88.788,158.344,89.051,158.323z" fill="#ffdd57"/>
			<path d="M410.277,46.288c-2.291-3.966-4.758-7.881-7.333-11.638c-3.124-4.555-9.348-5.716-13.904-2.593     s-5.716,9.347-2.593,13.903c2.286,3.333,4.477,6.809,6.51,10.329c21.126,36.594,26.737,79.223,15.801,120.034     c-1.43,5.335,1.736,10.818,7.07,12.248c0.867,0.232,1.738,0.343,2.595,0.343c4.415,0,8.456-2.946,9.653-7.414     C440.396,135.53,434.075,87.511,410.277,46.288z" fill="#ffdd57"/>
			<path d="M103.025,175.795c-1.412-5.339-6.888-8.521-12.226-7.11c-5.339,1.413-8.522,6.886-7.109,12.225l0.165,0.622     c1.209,4.453,5.241,7.382,9.645,7.382c0.867,0,1.749-0.114,2.626-0.352c5.33-1.447,8.478-6.941,7.03-12.272L103.025,175.795z" fill="#ffdd57"/>
			<path d="M368.303,24.013c1.945,1.904,4.471,2.853,6.993,2.853c2.596,0,5.189-1.004,7.148-3.006     c3.862-3.947,3.794-10.279-0.153-14.143l-0.294-0.294c-3.885-3.928-10.217-3.96-14.144-0.077     c-3.926,3.884-3.96,10.216-0.076,14.143C367.951,23.663,368.128,23.841,368.303,24.013z" fill="#ffdd57"/>
			<path d="M255.963,170.465c19.344,0,35.08-15.738,35.08-35.083c0-19.345-15.737-35.083-35.08-35.083     c-19.346,0-35.083,15.738-35.083,35.083C220.879,154.727,236.617,170.465,255.963,170.465z M255.963,120.3     c8.314,0,15.08,6.766,15.08,15.083s-6.765,15.083-15.08,15.083c-8.316,0-15.083-6.766-15.083-15.083S247.646,120.3,255.963,120.3     z" fill="#ffdd57"/>
		</g>
	</g>
</g>
<g>
</g>
<g>
</g>
<g>
</g>
<g>
</g>
<g>
</g>
<g>
</g>
<g>
</g>
<g>
</g>
<g>
</g>
<g>
</g>
<g>
</g>
<g>
</g>
<g>
</g>
<g>
</g>
<g>
</g>
</svg>
