<?xml version="1.0" encoding="iso-8859-1"?>
<!-- Generator: Adobe Illustrator 19.0.0, SVG Export Plug-In . SVG Version: 6.00 Build 0)  -->
<svg xmlns="http://www.w3.org/2000/svg" xmlns:xlink="http://www.w3.org/1999/xlink" version="1.1" id="Capa_1" x="0px" y="0px" viewBox="0 0 511.998 511.998" style="enable-background:new 0 0 511.998 511.998;" xml:space="preserve" width="512px" height="512px">
<g>
	<g>
		<g>
			<path d="M128.695,130.146c1.476,0.768,3.054,1.131,4.608,1.131c3.61,0,7.097-1.961,8.879-5.385l0.184-0.348     c2.593-4.875,0.743-10.932-4.133-13.525c-4.876-2.594-10.932-0.742-13.525,4.133l-0.266,0.506     C121.892,121.557,123.795,127.596,128.695,130.146z" fill="#FFFFFF"/>
			<path d="M467.733,205.863v-26.156c0-16.275-12.82-29.613-28.893-30.443c-4.404-31.947-20.064-63.848-43.807-88.754     c-25.018-26.244-56.126-42.127-88.497-45.395V10c0-5.522-4.478-10-10-10h-81.81c-5.522,0-10,4.478-10,10v5.115     c-32.371,3.268-63.479,19.15-88.496,45.395c-23.742,24.906-39.401,56.807-43.807,88.754c-16.07,0.832-28.891,14.17-28.891,30.443     v27.258c-9.445,8.582-12.154,17.205-12.154,24.246c0,17.627,17.597,32.34,40.788,35.506c1.472,16.756,4.118,33.742,6.835,48.99     c-3.653,1.49-6.231,5.072-6.231,9.26c0,5.459,4.378,9.891,9.813,9.99c0.204,1.066,0.408,2.131,0.606,3.16     c1.373,7.158,2.558,13.342,3.35,18.162c7.075,42.969,13.565,65.949,23.147,81.957c10.128,16.922,23.308,25.305,41.549,36.908     c5.511,3.506,11.756,7.478,18.603,12.121l0.613,0.385c27.97,16.148,56.615,24.34,85.14,24.348c0.013,0,0.021,0,0.034,0     c28.54,0,57.204-8.195,85.191-24.355l0.613-0.383c6.847-4.645,13.092-8.617,18.603-12.121     c18.241-11.602,31.42-19.984,41.547-36.904c9.582-16.008,16.071-38.986,23.145-81.955c0.791-4.807,1.973-10.971,3.342-18.105     c0.201-1.049,0.408-2.133,0.616-3.217c5.434-0.102,9.81-4.531,9.81-9.99c0-4.188-2.577-7.768-6.229-9.258     c2.721-15.277,5.372-32.299,6.841-49.084c8.946-1.234,17.405-4.227,24.463-8.727c10.837-6.91,17.053-16.818,17.053-27.184     C480.621,223.504,477.787,214.631,467.733,205.863z M306.536,35.232c62.73,7.44,109.512,69.51,113.311,124.678     c0.361,5.244,4.721,9.313,9.977,9.313h7.426c5.78,0,10.483,4.703,10.483,10.484v13.787c-5.44-2.496-11.71-4.904-18.974-7.178     c-29.472-9.219-70.464-14.943-122.223-17.105V35.232z M224.727,20h61.81v148.566c-9.617-0.225-19.556-0.34-29.835-0.34     c-11.041,0-21.692,0.133-31.975,0.391V20z M74.017,169.223h7.424c5.256,0,9.615-4.068,9.977-9.313     C95.217,104.742,142,42.672,204.728,35.232V55.31c-22.813,3.152-44.675,15.5-62.417,35.455     c-3.669,4.129-3.298,10.449,0.829,14.119c1.905,1.693,4.277,2.525,6.641,2.525c2.757,0,5.502-1.133,7.478-3.355     c13.797-15.518,30.352-25.385,47.47-28.486V169.3c-51.201,2.248-91.841,8.016-121.189,17.234c-7.718,2.424-14.326,5-20.004,7.668     v-14.495h-0.002C63.534,173.926,68.237,169.223,74.017,169.223z M404.991,353.031c-12.838,77.975-21.916,83.748-55.692,105.231     c-5.546,3.527-11.822,7.52-18.791,12.238c-49.686,28.568-100.069,28.57-149.748,0.008c-6.969-4.719-13.243-8.711-18.789-12.238     c-33.779-21.486-42.857-27.262-55.697-105.236c-0.812-4.936-1.976-11.031-3.324-18.066h17.648     c4.817,30.672,31.422,54.207,63.425,54.207s58.607-23.535,63.424-54.207h16.375c4.817,30.672,31.421,54.207,63.422,54.207     c32.003,0,58.607-23.535,63.425-54.207h17.648C406.968,342.003,405.803,348.097,404.991,353.031z M228.229,324.992     c-0.014,24.365-19.839,44.182-44.206,44.182c-24.376,0-44.208-19.83-44.208-44.207c0-24.375,19.832-44.207,44.208-44.207     c24.367,0,44.192,19.818,44.206,44.182c0,0.008-0.001,0.018-0.001,0.025C228.228,324.977,228.229,324.984,228.229,324.992z      M371.451,325.006c-0.022,24.358-19.844,44.168-44.207,44.168c-24.375,0-44.205-19.83-44.205-44.207     c0-24.375,19.83-44.207,44.205-44.207c24.363,0,44.186,19.811,44.207,44.168c0,0.014-0.002,0.027-0.002,0.039     C371.449,324.98,371.451,324.992,371.451,325.006z M412.074,314.967h-21.405c-4.817-30.67-31.422-54.207-63.425-54.207     c-32.001,0-58.605,23.537-63.422,54.207h-16.375c-4.817-30.67-31.421-54.207-63.424-54.207s-58.607,23.537-63.425,54.207H99.192     c-2.854-15.771-5.696-33.553-7.172-50.828c52.602-18.996,107.605-28.631,163.613-28.631c56.003,0,111.007,9.635,163.61,28.631     C417.769,281.414,414.927,299.193,412.074,314.967z M431.27,247.244c-56.367-21.059-115.45-31.736-175.637-31.736     c-60.27,0-119.426,10.703-175.855,31.816C63.9,246.74,51.38,238.267,51.38,231.211c0-6.279,9.992-16.748,38.152-25.596     c36.214-11.375,94.02-17.389,167.17-17.389c122.71,0,175.116,16.502,194.335,29.963c0.501,0.453,1.047,0.855,1.632,1.201     c5.753,4.418,7.952,8.436,7.952,11.324C460.621,237.994,447.657,246.74,431.27,247.244z" fill="#FFFFFF"/>
		</g>
	</g>
</g>
<g>
</g>
<g>
</g>
<g>
</g>
<g>
</g>
<g>
</g>
<g>
</g>
<g>
</g>
<g>
</g>
<g>
</g>
<g>
</g>
<g>
</g>
<g>
</g>
<g>
</g>
<g>
</g>
<g>
</g>
</svg>
