<?xml version="1.0" encoding="iso-8859-1"?>
<!-- Generator: Adobe Illustrator 19.0.0, SVG Export Plug-In . SVG Version: 6.00 Build 0)  -->
<svg xmlns="http://www.w3.org/2000/svg" xmlns:xlink="http://www.w3.org/1999/xlink" version="1.1" id="Capa_1" x="0px" y="0px" viewBox="0 0 512.001 512.001" style="enable-background:new 0 0 512.001 512.001;" xml:space="preserve" width="512px" height="512px">
<g>
	<g>
		<g>
			<path d="M511.166,331.767l-69.779-193.305c-1.431-3.963-5.192-6.604-9.406-6.604H111.561l-6.654-40.057l34.105-19.692     l13.28,23.003c1.326,2.297,3.51,3.973,6.071,4.66c0.852,0.228,1.722,0.341,2.589,0.341c1.74,0,3.467-0.455,5-1.34l49.256-28.437     c2.297-1.326,3.973-3.51,4.659-6.072c0.687-2.561,0.327-5.291-0.999-7.588l-18.281-31.662     c-6.837-11.841-19.622-19.196-33.368-19.196c-6.71,0-13.329,1.774-19.138,5.129c-8.864,5.118-15.214,13.41-17.875,23.348     c-1.772,6.615-1.756,13.413-0.044,19.833L88.906,77.948c-3.609,2.084-5.548,6.188-4.865,10.299l7.244,43.614H79.998     c-4.214,0-7.976,2.641-9.406,6.604L0.593,332.375c-1.105,3.064-0.649,6.476,1.223,9.142c1.872,2.667,4.926,4.254,8.184,4.254     h59.999v150.413c0,5.523,4.478,10,10,10c5.522,0,10-4.477,10-10v-31.668h331.985v31.668c0,5.523,4.478,10,10,10     c5.522,0,10-4.477,10-10V345.769h59.999c0.008,0.001,0.015,0,0.02,0c5.523,0,10-4.477,10-10     C511.999,334.346,511.703,332.993,511.166,331.767z M149.522,39.469c1.28-4.778,4.319-8.757,8.559-11.204     c2.774-1.602,5.935-2.449,9.138-2.449c6.624,0,12.773,3.524,16.048,9.198l13.282,23.002l-31.937,18.438l-13.28-23.004     C148.884,49.212,148.242,44.246,149.522,39.469z M421.983,444.517L421.983,444.517H89.997V345.77h34.642v56.667     c0,5.523,4.477,10,10,10c5.522,0,10-4.477,10-10v-15.002h222.704v15.002c0,5.523,4.478,10,10,10c5.522,0,10-4.477,10-10V345.77     h34.642V444.517z M144.637,367.435v-21.666h222.704v21.666H144.637z M24.239,325.77l48.429-134.161h27.366     c5.523,0,10-4.477,10-10s-4.477-10-10-10H79.888l7.131-19.753h16.021c0.011,0,0.021,0.001,0.032,0.001     c0.012,0,0.023-0.001,0.036-0.001h321.851l43.604,120.79h-20.147c-5.522,0-10,4.477-10,10s4.478,10,10,10h27.366l11.958,33.124     H24.239z" fill="#ffdd57"/>
			<path d="M352.271,178.376c-1.384-4.046-5.187-6.766-9.463-6.766H169.172c-4.276,0-8.079,2.719-9.463,6.766l-34.533,101.037     c-1.044,3.055-0.549,6.425,1.328,9.051c1.878,2.626,4.907,4.184,8.135,4.184h242.703c0.007,0,0.015,0,0.02,0     c5.523,0,10-4.477,10-10c0-1.364-0.272-2.664-0.767-3.849L352.271,178.376z M148.624,272.647l27.697-81.037h159.337     l27.697,81.037H148.624z" fill="#ffdd57"/>
			<path d="M129.001,191.612c5.523,0,10-4.477,10-10s-4.477-10-10-10h-0.236c-5.522,0-10,4.477-10,10s4.477,10,10,10H129.001z" fill="#ffdd57"/>
			<path d="M419.687,272.647h-0.235c-5.522,0-10,4.477-10,10s4.478,10,10,10h0.235c5.522,0,10-4.477,10-10     S425.209,272.647,419.687,272.647z" fill="#ffdd57"/>
		</g>
	</g>
</g>
<g>
</g>
<g>
</g>
<g>
</g>
<g>
</g>
<g>
</g>
<g>
</g>
<g>
</g>
<g>
</g>
<g>
</g>
<g>
</g>
<g>
</g>
<g>
</g>
<g>
</g>
<g>
</g>
<g>
</g>
</svg>
